<svg xmlns="http://www.w3.org/2000/svg" viewBox="0 0 1000 600" width="1000" height="600" font-family="'JetBrains Mono', 'Cascadia Code', monospace">
  <rect width="1000" height="600" fill="#ffffff"/>
  <!-- janela -->
  <rect x="40" y="30" width="920" height="540" rx="16" fill="#0b0b0f" stroke="#27272a" stroke-width="1.5"/>
  <!-- barra -->
  <rect x="40" y="30" width="920" height="44" rx="16" fill="#18181b"/>
  <rect x="40" y="58" width="920" height="16" fill="#18181b"/>
  <circle cx="68" cy="52" r="7" fill="#ff5f56"/>
  <circle cx="92" cy="52" r="7" fill="#ffbd2e"/>
  <circle cx="116" cy="52" r="7" fill="#27c93f"/>
  <text x="500" y="57" font-size="14" fill="#71717a" text-anchor="middle">hermes — bash</text>

  <!-- conteúdo -->
  <g font-size="16">
    <text x="68" y="115" fill="#4ade80">$</text>
    <text x="90" y="115" fill="#e4e4e7">hermes</text>

    <text x="68" y="155" fill="#CC785C" font-weight="700">🜲 Hermes Agent</text>
    <text x="240" y="155" fill="#52525b">v2026.5 · o agente que evolui com você</text>

    <text x="68" y="190" fill="#a1a1aa">Provider:</text>
    <text x="160" y="190" fill="#76b900" font-weight="700">nvidia</text>
    <text x="240" y="190" fill="#52525b">(build.nvidia.com)</text>

    <text x="68" y="215" fill="#a1a1aa">Model:</text>
    <text x="160" y="215" fill="#e4e4e7">nvidia/nemotron-3-super-120b</text>

    <text x="68" y="240" fill="#a1a1aa">Status:</text>
    <text x="160" y="240" fill="#4ade80">● conectado · 40 req/min · grátis</text>

    <line x1="68" y1="265" x2="900" y2="265" stroke="#27272a"/>

    <text x="68" y="300" fill="#7c3aed" font-weight="700">você ›</text>
    <text x="140" y="300" fill="#e4e4e7">crie um agente que resume meus e-mails</text>

    <text x="68" y="338" fill="#CC785C" font-weight="700">hermes ›</text>
    <text x="160" y="338" fill="#d4d4d8">Vou criar uma skill para isso. 🛠️</text>

    <text x="160" y="368" fill="#52525b">→ analisando a tarefa (6 passos)</text>
    <text x="160" y="393" fill="#52525b">→ gerando skills/resumo-email/SKILL.md</text>
    <text x="160" y="418" fill="#52525b">→ testando localmente... ok</text>

    <text x="160" y="450" fill="#4ade80">✓ skill salva! use com</text>
    <text x="395" y="450" fill="#fbbf24" font-weight="700">/resumo-email</text>

    <text x="68" y="495" fill="#7c3aed" font-weight="700">você ›</text>
    <rect x="140" y="481" width="11" height="20" fill="#4ade80">
      <animate attributeName="opacity" values="1;0;1" dur="1s" repeatCount="indefinite"/>
    </rect>
  </g>
</svg>
